<svg xmlns="http://www.w3.org/2000/svg" width="2000mm" height="1000mm" viewBox="0 0 2000 1000" preserveAspectRatio="xMidYMid meet">
<rect width="2000" height="1000" fill="#0D0D1A"/>
<line x1="80" y1="120" x2="1920" y2="120" stroke="#FFFFFF" stroke-opacity="0.08" stroke-width="0.6"/>
<line x1="80" y1="880" x2="1920" y2="880" stroke="#FFFFFF" stroke-opacity="0.08" stroke-width="0.6"/>
<g transform="translate(76.6667,-81.6667) scale(0.416667)"><rect x="80" y="376" width="160" height="32" fill="#00AFD7"/><rect x="80" y="426" width="160" height="32" fill="#00AFD7"/><rect x="208" y="476" width="32" height="172" fill="#00AFD7"/><rect x="80" y="616" width="160" height="32" fill="#00AFD7"/><rect x="280" y="376" width="64" height="32" fill="#00AFD7"/><rect x="312" y="376" width="32" height="272" fill="#00AFD7"/><rect x="384" y="376" width="32" height="272" fill="#00AFD7"/><rect x="384" y="376" width="160" height="32" fill="#00AFD7"/><rect x="512" y="376" width="32" height="160" fill="#00AFD7"/><rect x="384" y="512" width="160" height="32" fill="#00AFD7"/><rect x="584" y="376" width="32" height="272" fill="#00AFD7"/><rect x="584" y="376" width="160" height="32" fill="#00AFD7"/><rect x="712" y="376" width="32" height="160" fill="#00AFD7"/><rect x="584" y="512" width="160" height="32" fill="#00AFD7"/><rect x="784" y="376" width="32" height="160" fill="#00AFD7"/><rect x="784" y="512" width="160" height="32" fill="#00AFD7"/><rect x="912" y="376" width="32" height="272" fill="#00AFD7"/></g>
<circle cx="1830" cy="98" r="4" fill="#00D796"/>
<circle cx="1830" cy="98" r="10" fill="#00D796" fill-opacity="0.18"/>
<text x="1845" y="102" font-family="Space Mono" font-weight="700" font-size="12" fill="#FFFFFF" fill-opacity="0.7" text-anchor="start" letter-spacing="1.40">EN LÍNEA</text>
<text x="130" y="420" font-family="Chakra Petch" font-weight="700" font-size="170" fill="#FFFFFF" fill-opacity="1.0" text-anchor="start" letter-spacing="0.00">manda plata</text>
<text x="130" y="550" font-family="Chakra Petch" font-weight="700" font-size="170" fill="#00AFD7" fill-opacity="1.0" text-anchor="start" letter-spacing="0.00">por texto.</text>
<text x="130" y="620" font-family="Chakra Petch" font-weight="400" font-size="32" fill="#FFFFFF" fill-opacity="0.65" text-anchor="start" letter-spacing="0.00">dólares digitales por WhatsApp.</text>
<text x="130" y="660" font-family="Chakra Petch" font-weight="400" font-size="32" fill="#FFFFFF" fill-opacity="0.65" text-anchor="start" letter-spacing="0.00">sin app. sin banco.</text>
<rect x="1190" y="160.0" width="680" height="680" rx="20" fill="#FFFFFF"/>
<rect x="1240" y="210.0" width="580" height="580" fill="#FFFFFF"/><g transform="translate(1240,210.0) scale(14.146341)"><path d="M2,2H3V3H2zM3,2H4V3H3zM4,2H5V3H4zM5,2H6V3H5zM6,2H7V3H6zM7,2H8V3H7zM8,2H9V3H8zM10,2H11V3H10zM13,2H14V3H13zM14,2H15V3H14zM16,2H17V3H16zM17,2H18V3H17zM19,2H20V3H19zM21,2H22V3H21zM24,2H25V3H24zM25,2H26V3H25zM26,2H27V3H26zM27,2H28V3H27zM28,2H29V3H28zM32,2H33V3H32zM33,2H34V3H33zM34,2H35V3H34zM35,2H36V3H35zM36,2H37V3H36zM37,2H38V3H37zM38,2H39V3H38zM2,3H3V4H2zM8,3H9V4H8zM10,3H11V4H10zM11,3H12V4H11zM12,3H13V4H12zM15,3H16V4H15zM16,3H17V4H16zM17,3H18V4H17zM18,3H19V4H18zM21,3H22V4H21zM24,3H25V4H24zM29,3H30V4H29zM32,3H33V4H32zM38,3H39V4H38zM2,4H3V5H2zM4,4H5V5H4zM5,4H6V5H5zM6,4H7V5H6zM8,4H9V5H8zM10,4H11V5H10zM12,4H13V5H12zM13,4H14V5H13zM14,4H15V5H14zM19,4H20V5H19zM20,4H21V5H20zM23,4H24V5H23zM24,4H25V5H24zM25,4H26V5H25zM26,4H27V5H26zM32,4H33V5H32zM34,4H35V5H34zM35,4H36V5H35zM36,4H37V5H36zM38,4H39V5H38zM2,5H3V6H2zM4,5H5V6H4zM5,5H6V6H5zM6,5H7V6H6zM8,5H9V6H8zM11,5H12V6H11zM13,5H14V6H13zM14,5H15V6H14zM15,5H16V6H15zM17,5H18V6H17zM20,5H21V6H20zM21,5H22V6H21zM22,5H23V6H22zM24,5H25V6H24zM25,5H26V6H25zM26,5H27V6H26zM27,5H28V6H27zM28,5H29V6H28zM29,5H30V6H29zM32,5H33V6H32zM34,5H35V6H34zM35,5H36V6H35zM36,5H37V6H36zM38,5H39V6H38zM2,6H3V7H2zM4,6H5V7H4zM5,6H6V7H5zM6,6H7V7H6zM8,6H9V7H8zM15,6H16V7H15zM17,6H18V7H17zM19,6H20V7H19zM20,6H21V7H20zM23,6H24V7H23zM24,6H25V7H24zM25,6H26V7H25zM27,6H28V7H27zM28,6H29V7H28zM32,6H33V7H32zM34,6H35V7H34zM35,6H36V7H35zM36,6H37V7H36zM38,6H39V7H38zM2,7H3V8H2zM8,7H9V8H8zM10,7H11V8H10zM11,7H12V8H11zM12,7H13V8H12zM14,7H15V8H14zM17,7H18V8H17zM18,7H19V8H18zM20,7H21V8H20zM22,7H23V8H22zM23,7H24V8H23zM27,7H28V8H27zM28,7H29V8H28zM29,7H30V8H29zM30,7H31V8H30zM32,7H33V8H32zM38,7H39V8H38zM2,8H3V9H2zM3,8H4V9H3zM4,8H5V9H4zM5,8H6V9H5zM6,8H7V9H6zM7,8H8V9H7zM8,8H9V9H8zM10,8H11V9H10zM12,8H13V9H12zM14,8H15V9H14zM16,8H17V9H16zM18,8H19V9H18zM20,8H21V9H20zM22,8H23V9H22zM24,8H25V9H24zM26,8H27V9H26zM28,8H29V9H28zM30,8H31V9H30zM32,8H33V9H32zM33,8H34V9H33zM34,8H35V9H34zM35,8H36V9H35zM36,8H37V9H36zM37,8H38V9H37zM38,8H39V9H38zM10,9H11V10H10zM11,9H12V10H11zM12,9H13V10H12zM15,9H16V10H15zM17,9H18V10H17zM18,9H19V10H18zM19,9H20V10H19zM20,9H21V10H20zM22,9H23V10H22zM23,9H24V10H23zM25,9H26V10H25zM27,9H28V10H27zM30,9H31V10H30zM4,10H5V11H4zM5,10H6V11H5zM6,10H7V11H6zM8,10H9V11H8zM10,10H11V11H10zM12,10H13V11H12zM13,10H14V11H13zM16,10H17V11H16zM21,10H22V11H21zM22,10H23V11H22zM23,10H24V11H23zM26,10H27V11H26zM28,10H29V11H28zM30,10H31V11H30zM31,10H32V11H31zM32,10H33V11H32zM33,10H34V11H33zM36,10H37V11H36zM37,10H38V11H37zM38,10H39V11H38zM3,11H4V12H3zM4,11H5V12H4zM5,11H6V12H5zM6,11H7V12H6zM7,11H8V12H7zM9,11H10V12H9zM10,11H11V12H10zM11,11H12V12H11zM12,11H13V12H12zM14,11H15V12H14zM15,11H16V12H15zM19,11H20V12H19zM20,11H21V12H20zM21,11H22V12H21zM22,11H23V12H22zM26,11H27V12H26zM27,11H28V12H27zM29,11H30V12H29zM31,11H32V12H31zM36,11H37V12H36zM37,11H38V12H37zM2,12H3V13H2zM3,12H4V13H3zM4,12H5V13H4zM5,12H6V13H5zM7,12H8V13H7zM8,12H9V13H8zM9,12H10V13H9zM10,12H11V13H10zM12,12H13V13H12zM14,12H15V13H14zM16,12H17V13H16zM17,12H18V13H17zM18,12H19V13H18zM19,12H20V13H19zM21,12H22V13H21zM22,12H23V13H22zM24,12H25V13H24zM25,12H26V13H25zM26,12H27V13H26zM27,12H28V13H27zM28,12H29V13H28zM29,12H30V13H29zM30,12H31V13H30zM32,12H33V13H32zM34,12H35V13H34zM35,12H36V13H35zM38,12H39V13H38zM4,13H5V14H4zM6,13H7V14H6zM12,13H13V14H12zM16,13H17V14H16zM17,13H18V14H17zM20,13H21V14H20zM21,13H22V14H21zM22,13H23V14H22zM23,13H24V14H23zM25,13H26V14H25zM28,13H29V14H28zM29,13H30V14H29zM32,13H33V14H32zM37,13H38V14H37zM38,13H39V14H38zM2,14H3V15H2zM3,14H4V15H3zM4,14H5V15H4zM5,14H6V15H5zM7,14H8V15H7zM8,14H9V15H8zM9,14H10V15H9zM12,14H13V15H12zM14,14H15V15H14zM15,14H16V15H15zM27,14H28V15H27zM28,14H29V15H28zM29,14H30V15H29zM30,14H31V15H30zM31,14H32V15H31zM32,14H33V15H32zM33,14H34V15H33zM34,14H35V15H34zM35,14H36V15H35zM36,14H37V15H36zM38,14H39V15H38zM3,15H4V16H3zM5,15H6V16H5zM6,15H7V16H6zM7,15H8V16H7zM9,15H10V16H9zM12,15H13V16H12zM14,15H15V16H14zM17,15H18V16H17zM18,15H19V16H18zM19,15H20V16H19zM21,15H22V16H21zM23,15H24V16H23zM24,15H25V16H24zM28,15H29V16H28zM30,15H31V16H30zM31,15H32V16H31zM35,15H36V16H35zM36,15H37V16H36zM6,16H7V17H6zM8,16H9V17H8zM9,16H10V17H9zM11,16H12V17H11zM13,16H14V17H13zM14,16H15V17H14zM15,16H16V17H15zM17,16H18V17H17zM18,16H19V17H18zM19,16H20V17H19zM21,16H22V17H21zM22,16H23V17H22zM23,16H24V17H23zM27,16H28V17H27zM29,16H30V17H29zM30,16H31V17H30zM32,16H33V17H32zM33,16H34V17H33zM35,16H36V17H35zM37,16H38V17H37zM38,16H39V17H38zM2,17H3V18H2zM5,17H6V18H5zM6,17H7V18H6zM9,17H10V18H9zM13,17H14V18H13zM14,17H15V18H14zM16,17H17V18H16zM17,17H18V18H17zM18,17H19V18H18zM19,17H20V18H19zM20,17H21V18H20zM22,17H23V18H22zM25,17H26V18H25zM29,17H30V18H29zM30,17H31V18H30zM31,17H32V18H31zM32,17H33V18H32zM34,17H35V18H34zM3,18H4V19H3zM4,18H5V19H4zM5,18H6V19H5zM6,18H7V19H6zM7,18H8V19H7zM8,18H9V19H8zM16,18H17V19H16zM17,18H18V19H17zM18,18H19V19H18zM21,18H22V19H21zM22,18H23V19H22zM24,18H25V19H24zM26,18H27V19H26zM27,18H28V19H27zM29,18H30V19H29zM30,18H31V19H30zM32,18H33V19H32zM33,18H34V19H33zM34,18H35V19H34zM36,18H37V19H36zM37,18H38V19H37zM2,19H3V20H2zM3,19H4V20H3zM4,19H5V20H4zM5,19H6V20H5zM6,19H7V20H6zM10,19H11V20H10zM13,19H14V20H13zM15,19H16V20H15zM19,19H20V20H19zM21,19H22V20H21zM22,19H23V20H22zM24,19H25V20H24zM25,19H26V20H25zM26,19H27V20H26zM28,19H29V20H28zM31,19H32V20H31zM36,19H37V20H36zM6,20H7V21H6zM8,20H9V21H8zM9,20H10V21H9zM13,20H14V21H13zM16,20H17V21H16zM17,20H18V21H17zM20,20H21V21H20zM21,20H22V21H21zM22,20H23V21H22zM23,20H24V21H23zM24,20H25V21H24zM26,20H27V21H26zM28,20H29V21H28zM29,20H30V21H29zM30,20H31V21H30zM31,20H32V21H31zM33,20H34V21H33zM34,20H35V21H34zM37,20H38V21H37zM38,20H39V21H38zM2,21H3V22H2zM6,21H7V22H6zM9,21H10V22H9zM10,21H11V22H10zM12,21H13V22H12zM13,21H14V22H13zM15,21H16V22H15zM16,21H17V22H16zM17,21H18V22H17zM18,21H19V22H18zM21,21H22V22H21zM22,21H23V22H22zM26,21H27V22H26zM30,21H31V22H30zM31,21H32V22H31zM33,21H34V22H33zM34,21H35V22H34zM2,22H3V23H2zM6,22H7V23H6zM8,22H9V23H8zM10,22H11V23H10zM12,22H13V23H12zM14,22H15V23H14zM17,22H18V23H17zM19,22H20V23H19zM22,22H23V23H22zM24,22H25V23H24zM25,22H26V23H25zM26,22H27V23H26zM27,22H28V23H27zM29,22H30V23H29zM31,22H32V23H31zM32,22H33V23H32zM33,22H34V23H33zM34,22H35V23H34zM35,22H36V23H35zM36,22H37V23H36zM37,22H38V23H37zM38,22H39V23H38zM2,23H3V24H2zM3,23H4V24H3zM4,23H5V24H4zM5,23H6V24H5zM6,23H7V24H6zM7,23H8V24H7zM10,23H11V24H10zM13,23H14V24H13zM15,23H16V24H15zM19,23H20V24H19zM21,23H22V24H21zM22,23H23V24H22zM23,23H24V24H23zM24,23H25V24H24zM26,23H27V24H26zM28,23H29V24H28zM31,23H32V24H31zM33,23H34V24H33zM2,24H3V25H2zM5,24H6V25H5zM8,24H9V25H8zM9,24H10V25H9zM10,24H11V25H10zM12,24H13V25H12zM13,24H14V25H13zM15,24H16V25H15zM17,24H18V25H17zM18,24H19V25H18zM20,24H21V25H20zM21,24H22V25H21zM24,24H25V25H24zM25,24H26V25H25zM26,24H27V25H26zM29,24H30V25H29zM32,24H33V25H32zM35,24H36V25H35zM37,24H38V25H37zM38,24H39V25H38zM2,25H3V26H2zM3,25H4V26H3zM4,25H5V26H4zM5,25H6V26H5zM6,25H7V26H6zM9,25H10V26H9zM10,25H11V26H10zM15,25H16V26H15zM16,25H17V26H16zM17,25H18V26H17zM19,25H20V26H19zM20,25H21V26H20zM21,25H22V26H21zM22,25H23V26H22zM26,25H27V26H26zM28,25H29V26H28zM31,25H32V26H31zM32,25H33V26H32zM33,25H34V26H33zM35,25H36V26H35zM37,25H38V26H37zM4,26H5V27H4zM6,26H7V27H6zM8,26H9V27H8zM9,26H10V27H9zM11,26H12V27H11zM12,26H13V27H12zM16,26H17V27H16zM19,26H20V27H19zM20,26H21V27H20zM32,26H33V27H32zM33,26H34V27H33zM34,26H35V27H34zM36,26H37V27H36zM37,26H38V27H37zM2,27H3V28H2zM3,27H4V28H3zM4,27H5V28H4zM5,27H6V28H5zM6,27H7V28H6zM7,27H8V28H7zM9,27H10V28H9zM11,27H12V28H11zM13,27H14V28H13zM14,27H15V28H14zM20,27H21V28H20zM26,27H27V28H26zM28,27H29V28H28zM29,27H30V28H29zM30,27H31V28H30zM32,27H33V28H32zM35,27H36V28H35zM37,27H38V28H37zM2,28H3V29H2zM5,28H6V29H5zM6,28H7V29H6zM7,28H8V29H7zM8,28H9V29H8zM10,28H11V29H10zM12,28H13V29H12zM14,28H15V29H14zM15,28H16V29H15zM18,28H19V29H18zM20,28H21V29H20zM21,28H22V29H21zM27,28H28V29H27zM28,28H29V29H28zM32,28H33V29H32zM33,28H34V29H33zM38,28H39V29H38zM2,29H3V30H2zM6,29H7V30H6zM7,29H8V30H7zM9,29H10V30H9zM10,29H11V30H10zM11,29H12V30H11zM13,29H14V30H13zM14,29H15V30H14zM22,29H23V30H22zM26,29H27V30H26zM28,29H29V30H28zM30,29H31V30H30zM31,29H32V30H31zM33,29H34V30H33zM35,29H36V30H35zM2,30H3V31H2zM7,30H8V31H7zM8,30H9V31H8zM9,30H10V31H9zM12,30H13V31H12zM13,30H14V31H13zM15,30H16V31H15zM16,30H17V31H16zM18,30H19V31H18zM19,30H20V31H19zM21,30H22V31H21zM23,30H24V31H23zM24,30H25V31H24zM26,30H27V31H26zM27,30H28V31H27zM28,30H29V31H28zM30,30H31V31H30zM31,30H32V31H31zM32,30H33V31H32zM33,30H34V31H33zM34,30H35V31H34zM35,30H36V31H35zM36,30H37V31H36zM37,30H38V31H37zM38,30H39V31H38zM10,31H11V32H10zM12,31H13V32H12zM16,31H17V32H16zM17,31H18V32H17zM20,31H21V32H20zM21,31H22V32H21zM23,31H24V32H23zM24,31H25V32H24zM25,31H26V32H25zM29,31H30V32H29zM30,31H31V32H30zM34,31H35V32H34zM2,32H3V33H2zM3,32H4V33H3zM4,32H5V33H4zM5,32H6V33H5zM6,32H7V33H6zM7,32H8V33H7zM8,32H9V33H8zM11,32H12V33H11zM13,32H14V33H13zM17,32H18V33H17zM18,32H19V33H18zM21,32H22V33H21zM22,32H23V33H22zM23,32H24V33H23zM26,32H27V33H26zM27,32H28V33H27zM30,32H31V33H30zM32,32H33V33H32zM34,32H35V33H34zM35,32H36V33H35zM38,32H39V33H38zM2,33H3V34H2zM8,33H9V34H8zM11,33H12V34H11zM12,33H13V34H12zM14,33H15V34H14zM15,33H16V34H15zM17,33H18V34H17zM19,33H20V34H19zM20,33H21V34H20zM22,33H23V34H22zM24,33H25V34H24zM26,33H27V34H26zM30,33H31V34H30zM34,33H35V34H34zM37,33H38V34H37zM38,33H39V34H38zM2,34H3V35H2zM4,34H5V35H4zM5,34H6V35H5zM6,34H7V35H6zM8,34H9V35H8zM10,34H11V35H10zM12,34H13V35H12zM14,34H15V35H14zM16,34H17V35H16zM17,34H18V35H17zM19,34H20V35H19zM23,34H24V35H23zM24,34H25V35H24zM25,34H26V35H25zM26,34H27V35H26zM27,34H28V35H27zM29,34H30V35H29zM30,34H31V35H30zM31,34H32V35H31zM32,34H33V35H32zM33,34H34V35H33zM34,34H35V35H34zM36,34H37V35H36zM38,34H39V35H38zM2,35H3V36H2zM4,35H5V36H4zM5,35H6V36H5zM6,35H7V36H6zM8,35H9V36H8zM10,35H11V36H10zM11,35H12V36H11zM13,35H14V36H13zM14,35H15V36H14zM15,35H16V36H15zM17,35H18V36H17zM19,35H20V36H19zM20,35H21V36H20zM23,35H24V36H23zM27,35H28V36H27zM28,35H29V36H28zM29,35H30V36H29zM32,35H33V36H32zM33,35H34V36H33zM34,35H35V36H34zM2,36H3V37H2zM4,36H5V37H4zM5,36H6V37H5zM6,36H7V37H6zM8,36H9V37H8zM10,36H11V37H10zM11,36H12V37H11zM12,36H13V37H12zM13,36H14V37H13zM14,36H15V37H14zM16,36H17V37H16zM17,36H18V37H17zM18,36H19V37H18zM19,36H20V37H19zM22,36H23V37H22zM23,36H24V37H23zM24,36H25V37H24zM25,36H26V37H25zM26,36H27V37H26zM28,36H29V37H28zM31,36H32V37H31zM38,36H39V37H38zM2,37H3V38H2zM8,37H9V38H8zM11,37H12V38H11zM13,37H14V38H13zM15,37H16V38H15zM17,37H18V38H17zM20,37H21V38H20zM21,37H22V38H21zM24,37H25V38H24zM25,37H26V38H25zM28,37H29V38H28zM30,37H31V38H30zM31,37H32V38H31zM32,37H33V38H32zM35,37H36V38H35zM38,37H39V38H38zM2,38H3V39H2zM3,38H4V39H3zM4,38H5V39H4zM5,38H6V39H5zM6,38H7V39H6zM7,38H8V39H7zM8,38H9V39H8zM12,38H13V39H12zM13,38H14V39H13zM14,38H15V39H14zM16,38H17V39H16zM21,38H22V39H21zM24,38H25V39H24zM25,38H26V39H25zM26,38H27V39H26zM28,38H29V39H28zM29,38H30V39H29zM32,38H33V39H32zM33,38H34V39H33zM35,38H36V39H35zM36,38H37V39H36zM37,38H38V39H37zM38,38H39V39H38z" fill="#0D0D1A"/></g>
<text x="1214" y="194.0" font-family="Space Mono" font-weight="700" font-size="11" fill="#1A1A2E" fill-opacity="0.45" text-anchor="start" letter-spacing="1.20">WA · 01</text>
<circle cx="1832" cy="802.0" r="20" fill="#00D796"/>
<polygon points="1827,795.0 1827,809.0 1839,802.0" fill="#0D0D1A"/>
<text x="130" y="920" font-family="Space Mono" font-weight="700" font-size="24" fill="#FFFFFF" fill-opacity="0.65" text-anchor="start" letter-spacing="1.00">sippy.lat</text>
<text x="1870" y="920" font-family="Space Mono" font-weight="400" font-size="24" fill="#FFFFFF" fill-opacity="0.45" text-anchor="end" letter-spacing="1.00">wa.me/14722261449</text>
</svg>