<svg width="200" height="64" viewBox="0 0 200 64" fill="none" xmlns="http://www.w3.org/2000/svg">
<path d="M11.5 20.55H25C26.5 20.55 27.7 21.75 27.7 23.25C27.7 24.75 26.5 25.95 25 25.95H11.5C12 32.75 17.7 38.05 24.6 38.05H25.1C26.6 38.05 27.8 39.25 27.8 40.75C27.8 42.25 26.6 43.45 25.1 43.45H24.6C17.7 43.45 12 48.75 11.5 55.55H47.4C54.3 55.55 60 50.25 60.5 43.45H47C45.5 43.45 44.3 42.25 44.3 40.75C44.3 39.25 45.5 38.05 47 38.05H60.5C60 31.25 54.3 25.95 47.4 25.95H46.9C45.4 25.95 44.2 24.75 44.2 23.25C44.2 21.75 45.4 20.55 46.9 20.55H47.4C54.3 20.55 60 15.25 60.5 8.45H24.6C17.7 8.45 12 13.75 11.5 20.55Z" fill="black"/>
<path d="M85.292 50.0801C82.7783 50.0801 80.5627 49.6934 78.6453 48.9199C76.7439 48.1304 75.2292 47.0105 74.1013 45.5603C72.9895 44.1101 72.3611 42.394 72.2161 40.4121L72.1919 40.0737H76.5425L76.5908 40.4121C76.7681 41.5723 77.2434 42.5793 78.0168 43.4333C78.7903 44.2712 79.8135 44.9238 81.0864 45.3911C82.3755 45.8423 83.8579 46.0679 85.5337 46.0679C87.2095 46.0679 88.6597 45.8342 89.8843 45.3669C91.1089 44.8835 92.0515 44.1987 92.7122 43.3125C93.3889 42.4263 93.7273 41.387 93.7273 40.1946V40.1704C93.7273 38.6396 93.1956 37.415 92.1321 36.4966C91.0686 35.5781 89.3364 34.853 86.9355 34.3213L83.0684 33.4753C79.6685 32.718 77.1467 31.5579 75.5032 29.9949C73.8757 28.4158 73.062 26.3533 73.062 23.8074V23.7832C73.0781 21.8657 73.6099 20.1819 74.6572 18.7317C75.7046 17.2654 77.1467 16.1213 78.9836 15.2996C80.8367 14.4617 82.9556 14.0427 85.3403 14.0427C87.6123 14.0427 89.6426 14.4536 91.4312 15.2754C93.2197 16.0811 94.6458 17.209 95.7092 18.6592C96.7888 20.1094 97.3931 21.7852 97.522 23.6865L97.5461 24.0491H93.1956L93.1472 23.7107C92.97 22.5183 92.5349 21.5032 91.842 20.6653C91.1492 19.8274 90.2388 19.1829 89.1108 18.7317C87.999 18.2805 86.7019 18.0549 85.2195 18.0549C83.6726 18.0549 82.3191 18.2886 81.1589 18.7559C79.9988 19.2231 79.0964 19.8757 78.4519 20.7136C77.8235 21.5515 77.5093 22.5344 77.5093 23.6624V23.6865C77.5093 25.1045 78.0491 26.2727 79.1287 27.1912C80.2083 28.1096 81.884 28.8186 84.156 29.3181L88.0232 30.1641C90.408 30.6797 92.3416 31.3645 93.824 32.2185C95.3225 33.0725 96.4182 34.136 97.1111 35.4089C97.8201 36.6658 98.1746 38.1804 98.1746 39.9529V39.9771C98.1746 42.0396 97.6509 43.8281 96.6035 45.3428C95.5723 46.8574 94.0898 48.0256 92.1562 48.8474C90.2388 49.6692 87.9507 50.0801 85.292 50.0801ZM102.888 49.5V24.3633H107.093V49.5H102.888ZM104.99 20.1094C104.265 20.1094 103.645 19.8516 103.129 19.3359C102.614 18.8203 102.356 18.2 102.356 17.4749C102.356 16.7336 102.614 16.1133 103.129 15.6138C103.645 15.0981 104.265 14.8403 104.99 14.8403C105.732 14.8403 106.352 15.0981 106.852 15.6138C107.367 16.1133 107.625 16.7336 107.625 17.4749C107.625 18.2 107.367 18.8203 106.852 19.3359C106.352 19.8516 105.732 20.1094 104.99 20.1094ZM112.822 57.9595V24.3633H117.027V28.6172H117.124C117.656 27.6343 118.308 26.7964 119.082 26.1035C119.871 25.3945 120.773 24.8467 121.789 24.46C122.804 24.0732 123.907 23.8799 125.1 23.8799C127.243 23.8799 129.112 24.4197 130.707 25.4993C132.319 26.5627 133.567 28.0774 134.454 30.0432C135.34 31.9929 135.783 34.2891 135.783 36.9316V36.9558C135.783 39.5984 135.332 41.8945 134.429 43.8442C133.543 45.7939 132.302 47.3086 130.707 48.3882C129.128 49.4517 127.283 49.9834 125.172 49.9834C123.996 49.9834 122.892 49.7981 121.861 49.4275C120.83 49.0408 119.911 48.501 119.106 47.8081C118.316 47.0991 117.656 46.2612 117.124 45.2944H117.027V57.9595H112.822ZM124.278 46.2612C125.76 46.2612 127.042 45.8826 128.121 45.1252C129.201 44.3679 130.031 43.2964 130.611 41.9106C131.191 40.5088 131.481 38.8572 131.481 36.9558V36.9316C131.481 34.998 131.191 33.3384 130.611 31.9526C130.031 30.5508 129.201 29.4792 128.121 28.738C127.042 27.9807 125.76 27.6021 124.278 27.6021C122.86 27.6021 121.603 27.9888 120.508 28.7622C119.412 29.5356 118.55 30.6233 117.921 32.0251C117.309 33.4109 117.003 35.0464 117.003 36.9316V36.9558C117.003 38.825 117.317 40.4604 117.946 41.8623C118.574 43.248 119.428 44.3276 120.508 45.1011C121.603 45.8745 122.86 46.2612 124.278 46.2612ZM140.037 57.9595V24.3633H144.242V28.6172H144.339C144.871 27.6343 145.523 26.7964 146.297 26.1035C147.086 25.3945 147.989 24.8467 149.004 24.46C150.019 24.0732 151.123 23.8799 152.315 23.8799C154.458 23.8799 156.327 24.4197 157.923 25.4993C159.534 26.5627 160.783 28.0774 161.669 30.0432C162.555 31.9929 162.998 34.2891 162.998 36.9316V36.9558C162.998 39.5984 162.547 41.8945 161.645 43.8442C160.759 45.7939 159.518 47.3086 157.923 48.3882C156.344 49.4517 154.499 49.9834 152.388 49.9834C151.211 49.9834 150.108 49.7981 149.076 49.4275C148.045 49.0408 147.127 48.501 146.321 47.8081C145.531 47.0991 144.871 46.2612 144.339 45.2944H144.242V57.9595H140.037ZM151.493 46.2612C152.976 46.2612 154.257 45.8826 155.336 45.1252C156.416 44.3679 157.246 43.2964 157.826 41.9106C158.406 40.5088 158.696 38.8572 158.696 36.9558V36.9316C158.696 34.998 158.406 33.3384 157.826 31.9526C157.246 30.5508 156.416 29.4792 155.336 28.738C154.257 27.9807 152.976 27.6021 151.493 27.6021C150.075 27.6021 148.819 27.9888 147.723 28.7622C146.627 29.5356 145.765 30.6233 145.137 32.0251C144.524 33.4109 144.218 35.0464 144.218 36.9316V36.9558C144.218 38.825 144.532 40.4604 145.161 41.8623C145.789 43.248 146.643 44.3276 147.723 45.1011C148.819 45.8745 150.075 46.2612 151.493 46.2612ZM168.702 57.9595C168.3 57.9595 167.889 57.9353 167.47 57.887C167.067 57.8547 166.729 57.8145 166.455 57.7661V54.334C166.632 54.3662 166.833 54.3984 167.059 54.4307C167.301 54.4629 167.55 54.479 167.808 54.479C169.146 54.479 170.209 54.2454 170.999 53.7781C171.804 53.3108 172.457 52.3682 172.956 50.9502L173.464 49.5242L164.134 24.3633H168.63L175.881 46.2612L174.987 45.2944H176.243L175.349 46.2612L182.624 24.3633H187.047L177.234 51.071C176.638 52.6663 175.969 53.9714 175.228 54.9866C174.487 56.0017 173.593 56.751 172.545 57.2344C171.498 57.7178 170.217 57.9595 168.702 57.9595Z" fill="black"/>
</svg>
