<svg width="50" height="48" viewBox="0 0 50 48" fill="none" xmlns="http://www.w3.org/2000/svg">
<path d="M0.5 12.55H14C15.5 12.55 16.7 13.75 16.7 15.25C16.7 16.75 15.5 17.95 14 17.95H0.5C1 24.75 6.7 30.05 13.6 30.05H14.1C15.6 30.05 16.8 31.25 16.8 32.75C16.8 34.25 15.6 35.45 14.1 35.45H13.6C6.7 35.45 1 40.75 0.5 47.55H36.4C43.3 47.55 49 42.25 49.5 35.45H36C34.5 35.45 33.3 34.25 33.3 32.75C33.3 31.25 34.5 30.05 36 30.05H49.5C49 23.25 43.3 17.95 36.4 17.95H35.9C34.4 17.95 33.2 16.75 33.2 15.25C33.2 13.75 34.4 12.55 35.9 12.55H36.4C43.3 12.55 49 7.25 49.5 0.449997H13.6C6.7 0.449997 1 5.75 0.5 12.55Z" fill="#259B5C"/>
</svg>
