<svg width="64" height="64" viewBox="0 0 64 64" fill="none" xmlns="http://www.w3.org/2000/svg">
<path d="M7.5 20.55H21C22.5 20.55 23.7 21.75 23.7 23.25C23.7 24.75 22.5 25.95 21 25.95H7.5C8 32.75 13.7 38.05 20.6 38.05H21.1C22.6 38.05 23.8 39.25 23.8 40.75C23.8 42.25 22.6 43.45 21.1 43.45H20.6C13.7 43.45 8 48.75 7.5 55.55H43.4C50.3 55.55 56 50.25 56.5 43.45H43C41.5 43.45 40.3 42.25 40.3 40.75C40.3 39.25 41.5 38.05 43 38.05H56.5C56 31.25 50.3 25.95 43.4 25.95H42.9C41.4 25.95 40.2 24.75 40.2 23.25C40.2 21.75 41.4 20.55 42.9 20.55H43.4C50.3 20.55 56 15.25 56.5 8.45H20.6C13.7 8.45 8 13.75 7.5 20.55Z" fill="white"/>
</svg>
