<?xml version="1.0" encoding="utf-8"?>
<svg xmlns="http://www.w3.org/2000/svg" width="1024" height="1024" viewBox="0 0 1024 1024">
  <rect fill="#000000" width="1024" height="1024"/>

  <!-- S/5 -->
  <rect fill="#FFFFFF" x="80" y="376" width="160" height="32"/>
  <rect fill="#FFFFFF" x="80" y="426" width="160" height="32"/>
  <rect fill="#FFFFFF" x="208" y="476" width="32" height="172"/>
  <rect fill="#FFFFFF" x="80" y="616" width="160" height="32"/>

  <!-- 1/i -->
  <rect fill="#FFFFFF" x="280" y="376" width="64" height="32"/>
  <rect fill="#FFFFFF" x="312" y="376" width="32" height="272"/>

  <!-- P/9 first -->
  <rect fill="#FFFFFF" x="384" y="376" width="32" height="272"/>
  <rect fill="#FFFFFF" x="384" y="376" width="160" height="32"/>
  <rect fill="#FFFFFF" x="512" y="376" width="32" height="160"/>
  <rect fill="#FFFFFF" x="384" y="512" width="160" height="32"/>

  <!-- P/9 second -->
  <rect fill="#FFFFFF" x="584" y="376" width="32" height="272"/>
  <rect fill="#FFFFFF" x="584" y="376" width="160" height="32"/>
  <rect fill="#FFFFFF" x="712" y="376" width="32" height="160"/>
  <rect fill="#FFFFFF" x="584" y="512" width="160" height="32"/>

  <!-- 4/y -->
  <rect fill="#FFFFFF" x="784" y="376" width="32" height="160"/>
  <rect fill="#FFFFFF" x="784" y="512" width="160" height="32"/>
  <rect fill="#FFFFFF" x="912" y="376" width="32" height="272"/>
</svg>
