<svg xmlns="http://www.w3.org/2000/svg" width="864" height="272" viewBox="80 376 864 272">
  <!-- S/5 -->
  <rect fill="#00AFD7" x="80" y="376" width="160" height="32"/>
  <rect fill="#00AFD7" x="80" y="426" width="160" height="32"/>
  <rect fill="#00AFD7" x="208" y="476" width="32" height="172"/>
  <rect fill="#00AFD7" x="80" y="616" width="160" height="32"/>

  <!-- 1/i -->
  <rect fill="#00AFD7" x="280" y="376" width="64" height="32"/>
  <rect fill="#00AFD7" x="312" y="376" width="32" height="272"/>

  <!-- P/9 first -->
  <rect fill="#00AFD7" x="384" y="376" width="32" height="272"/>
  <rect fill="#00AFD7" x="384" y="376" width="160" height="32"/>
  <rect fill="#00AFD7" x="512" y="376" width="32" height="160"/>
  <rect fill="#00AFD7" x="384" y="512" width="160" height="32"/>

  <!-- P/9 second -->
  <rect fill="#00AFD7" x="584" y="376" width="32" height="272"/>
  <rect fill="#00AFD7" x="584" y="376" width="160" height="32"/>
  <rect fill="#00AFD7" x="712" y="376" width="32" height="160"/>
  <rect fill="#00AFD7" x="584" y="512" width="160" height="32"/>

  <!-- 4/y -->
  <rect fill="#00AFD7" x="784" y="376" width="32" height="160"/>
  <rect fill="#00AFD7" x="784" y="512" width="160" height="32"/>
  <rect fill="#00AFD7" x="912" y="376" width="32" height="272"/>
</svg>
