<?xml version="1.0" encoding="utf-8"?>
<svg xmlns="http://www.w3.org/2000/svg" width="2000" height="280" viewBox="0 0 2000 280" preserveAspectRatio="xMidYMid slice" role="img" aria-label="Sippy grant report cover">
  <rect width="2000" height="280" fill="#FFFFFF"/>

  <!-- S/5 mark watermark on the right edge -->
  <g transform="translate(1678 -60) scale(0.4)" fill="#00AFD7" opacity="0.10">
    <rect x="368" y="220" width="288" height="48"/>
    <rect x="368" y="316" width="288" height="48"/>
    <rect x="608" y="412" width="48"  height="368"/>
    <rect x="368" y="732" width="288" height="48"/>
  </g>

  <!-- Nested gradient borders (matches landing-page hero frame) -->
  <g fill="none" stroke="#00AFD7">
    <rect x="3"  y="3"  width="1994" height="274" stroke-opacity="0.03" stroke-width="1"/>
    <rect x="6"  y="6"  width="1988" height="268" stroke-opacity="0.05" stroke-width="1"/>
    <rect x="9"  y="9"  width="1982" height="262" stroke-opacity="0.07" stroke-width="1"/>
    <rect x="12" y="12" width="1976" height="256" stroke-opacity="0.10" stroke-width="1"/>
    <rect x="15" y="15" width="1970" height="250" stroke-opacity="0.14" stroke-width="1"/>
    <rect x="18" y="18" width="1964" height="244" stroke-opacity="0.18" stroke-width="1"/>
    <rect x="21" y="21" width="1958" height="238" stroke-opacity="0.24" stroke-width="1"/>
    <rect x="24" y="24" width="1952" height="232" stroke-opacity="0.30" stroke-width="1"/>
    <rect x="27" y="27" width="1946" height="226" stroke-opacity="0.40" stroke-width="1"/>
    <rect x="30" y="30" width="1940" height="220" stroke-opacity="0.50" stroke-width="1"/>
    <rect x="33" y="33" width="1934" height="214" stroke-opacity="0.65" stroke-width="1"/>
    <rect x="36" y="36" width="1928" height="208" stroke-opacity="0.80" stroke-width="1"/>
  </g>
</svg>
